# xmcd CD database file
#
# Track frame offsets:
#	150
#	15307
#	30845
#	51782
#	68100
#	85252
#	100745
#	116322
#	129832
#	145742
#	163745
#	178470
#	195570
#	210307
#
# Disc length: 3132 seconds
#
# Revision: 0
# Processed by: cddbd v1.5PL3 Copyright (c) Steve Scherf et al.
# Submitted via: CDex 1.51
#
DISCID=ac0c3a0e
DTITLE=橋本 潮 - アニメアーティスト ベストセレクション 橋本 潮 -ロマンティックあげるよ-
DYEAR=1992
DGENRE=Anime(J)
TTITLE0=テレポーテーション〜恋の未確認〜
TTITLE1=恋のミラクル･ビーム
TTITLE2=私は帰りたい〜さすらいのニア〜
TTITLE3=虹の橋
TTITLE4=ロマンティックあげるよ
TTITLE5=少年色のメルヘン
TTITLE6=ぼくはブンブー
TTITLE7=カリフォルニア･ドリーミング
TTITLE8=地球の子
TTITLE9=金色のた･ま･ご
TTITLE10=悪魔のままで
TTITLE11=夜の銀ギツネとタヌキ
TTITLE12=おかえりなさい
TTITLE13=天使は眠らない
EXTD=YEAR: 1992.09.21
EXTT0=
EXTT1=
EXTT2=
EXTT3=
EXTT4=
EXTT5=
EXTT6=
EXTT7=
EXTT8=
EXTT9=
EXTT10=
EXTT11=
EXTT12=
EXTT13=
PLAYORDER=
